<svg  name="alert-circle" color="#DB471E" fill="#DB471E" size="22" version="1.1" xmlns="http://www.w3.org/2000/svg" viewBox="0 0 32 32"><path d="M32 16c0 8.844-7.156 16-16 16-8.829 0-16-7.156-16-16s7.171-16 16-16c8.829 0 16 7.156 16 16zM29.091 16c0-7.229-5.862-13.091-13.091-13.091s-13.091 5.862-13.091 13.091 5.862 13.091 13.091 13.091c7.229 0 13.091-5.862 13.091-13.091zM16 17.455c0.8 0 1.455-0.655 1.455-1.455v-5.818c0-0.8-0.654-1.455-1.455-1.455s-1.455 0.655-1.455 1.455v5.818c0 0.8 0.655 1.455 1.455 1.455zM16 23.273h0.015c0.8 0 1.455-0.655 1.455-1.455s-0.655-1.455-1.455-1.455h-0.015c-0.8 0-1.455 0.655-1.455 1.455s0.655 1.455 1.455 1.455z"></path></svg>