<svg xmlns="http://www.w3.org/2000/svg" width="34" height="34" viewBox="0 0 34 34" fill="none">
<path fill-rule="evenodd" clip-rule="evenodd" d="M23.8068 12.7001C23.6668 12.5555 23.4693 12.4739 23.2623 12.4739H23.2608L10.7363 12.4989C10.5285 12.4996 10.3311 12.582 10.1918 12.7273C10.0518 12.8719 9.98403 13.0658 10.0032 13.2612L10.9404 22.4556C10.9625 23.6645 12.0751 25.0002 13.5583 25.0002H20.452C21.8579 25.0002 23.0478 23.9244 23.0699 22.6431L23.9969 13.2333C24.016 13.0379 23.9468 12.8447 23.8068 12.7001Z" fill="#5D3EBC"/>
<path fill-rule="evenodd" clip-rule="evenodd" d="M19.1 14.4991V11.5271C19.1 10.288 18.1781 9.31806 17 9.31806C15.8219 9.31806 14.9 10.288 14.9 11.5271V14.4991C14.9 14.8629 14.5871 15.1581 14.2 15.1581C13.8129 15.1581 13.5 14.8629 13.5 14.4991V11.5271C13.5 9.54958 15.0358 8.00018 17 8.00018C18.9642 8.00018 20.5 9.54958 20.5 11.5271V14.4991C20.5 14.8629 20.1871 15.1581 19.8 15.1581C19.4129 15.1581 19.1 14.8629 19.1 14.4991Z" fill="#FFD300"/>
</svg>