<svg data-testid="icon" name="map-pin" size="19" color="#5D3EBC" version="1.1" xmlns="http://www.w3.org/2000/svg" viewBox="0 0 32 32" class="style__Icon-sc-__sc-hqksj3-1 ePxFAC"><path d="M16 0c3.534 0 6.921 1.4 9.429 3.907 2.507 2.494 3.907 5.895 3.907 9.429 0 5.201-3.307 9.855-6.361 13.083-1.56 1.64-3.107 2.974-4.268 3.894-0.587 0.453-1.067 0.814-1.414 1.067-0.173 0.12-0.307 0.213-0.4 0.28-0.040 0.040-0.080 0.067-0.107 0.080l-0.040 0.040c0 0-0.013 0-0.738-1.094l0.725 1.094c-0.453 0.293-1.027 0.293-1.48 0l-0.040-0.040c-0.027-0.027-0.067-0.040-0.107-0.080-0.093-0.067-0.227-0.16-0.4-0.28-0.347-0.24-0.84-0.6-1.414-1.067-1.16-0.92-2.707-2.254-4.268-3.894-3.054-3.214-6.361-7.882-6.361-13.083 0-3.534 1.414-6.921 3.907-9.429s5.895-3.907 9.429-3.907zM17.040 28.233c1.094-0.867 2.547-2.12 3.988-3.641 2.947-3.121 5.641-7.121 5.641-11.256 0-2.827-1.12-5.548-3.121-7.548s-4.721-3.121-7.548-3.121c-2.827 0-5.548 1.12-7.548 3.121s-3.121 4.721-3.121 7.548c0 4.134 2.694 8.148 5.641 11.256 1.44 1.52 2.894 2.774 3.988 3.641 0.304 0.244 0.586 0.456 0.826 0.638 0.075 0.057 0.147 0.111 0.214 0.162 0.28-0.213 0.64-0.48 1.040-0.8zM10.666 13.336c0-2.947 2.387-5.334 5.334-5.334s5.334 2.387 5.334 5.334c0 2.947-2.387 5.334-5.334 5.334s-5.334-2.387-5.334-5.334zM13.333 13.336c0 1.467 1.2 2.667 2.667 2.667 1.48 0 2.667-1.2 2.667-2.667s-1.187-2.667-2.667-2.667c-1.467 0-2.667 1.2-2.667 2.667z" class="style__Path-sc-__sc-hqksj3-2 lcjQMU"></path></svg>