<svg xmlns="http://www.w3.org/2000/svg" width="37" height="30" viewBox="0 0 37 30" fill="none">
<path d="M22.5293 23.7697L21.0878 16.8101L23.6083 16.6473L24.0579 23.5871L22.5293 23.7697Z" fill="#38008F"/>
<path d="M22.1807 22.108L23.9474 21.7369L23.9584 22.0479L22.2422 22.408L22.1807 22.108Z" fill="#B5C2D7"/>
<path d="M22.0898 21.6593L23.9079 21.2919L23.9253 21.635L22.1586 21.9874L22.0898 21.6593Z" fill="#B5C2D7"/>
<path d="M21.1263 11.1916C21.1262 11.0571 21.0837 10.9261 21.0048 10.8172V10.8117C21.0048 10.8117 19.8881 8.96744 19.4211 8.17244C19.1484 7.70174 18.8359 7.25524 18.487 6.83784L18.4655 6.80304C18.0218 6.19513 17.1905 6.12493 16.6396 6.68005C16.0886 7.23514 16.0629 8.16054 16.5593 8.71744L16.5643 8.72204H16.5597L19.8294 11.9412C19.9693 12.1197 20.2047 12.1917 20.457 12.1155C20.8387 12.0054 21.1369 11.5948 21.1263 11.1916Z" fill="#38008F"/>
<path d="M24.3997 9.22344C24.6213 9.17534 24.8438 9.32714 24.9089 9.57444C24.9414 9.69844 24.9277 9.83004 24.8704 9.94464C24.8454 9.99844 24.8093 10.0462 24.7643 10.0848C24.7194 10.1234 24.6667 10.1519 24.6098 10.1685C24.5542 10.1853 24.4956 10.1897 24.4382 10.1812C24.3808 10.1727 24.3259 10.1516 24.2776 10.1194C24.2258 10.0862 24.181 10.0431 24.1458 9.99254C24.1106 9.94204 24.0857 9.88504 24.0726 9.82494C24.04 9.70094 24.0537 9.56934 24.1111 9.45474C24.1359 9.40084 24.172 9.35304 24.217 9.31434C24.262 9.27574 24.3147 9.24724 24.3717 9.23084C24.3801 9.22574 24.3898 9.22324 24.3997 9.22344Z" fill="#F2BAAE"/>
<path d="M24.274 9.30654L23.6661 9.72404L23.8831 10.2488L24.6034 10.1433L24.274 9.30654Z" fill="#F2BAAE"/>
<path d="M24.196 10.5406C24.1909 10.5406 21.9861 11.5219 21.4553 11.771C21.1684 11.9088 20.8704 12.0221 20.5643 12.1096L20.5465 12.121C20.162 12.2545 19.75 12.0169 19.6248 11.5902C19.4995 11.1636 19.7051 10.7025 20.0836 10.5699H20.0886L23.8354 9.42854L24.196 10.5406Z" fill="#38008F"/>
<path d="M23.9745 10.7195L24.2548 10.5782L23.9034 9.37024L23.5919 9.41434L23.9745 10.7195Z" fill="#38008F"/>
<path d="M23.2524 9.58633L23.6148 10.8089C23.5377 10.8461 23.451 10.8842 23.3648 10.9218L22.9904 9.66343L23.2524 9.58633Z" fill="#B6C3D9"/>
<path d="M12.8097 23.8032C12.563 22.5814 11.8436 21.5067 10.8081 20.8129C10.5622 20.6484 10.301 20.5078 10.0282 20.3931C9.06313 19.9865 7.98983 19.9145 6.979 20.1884C5.96822 20.4624 5.07814 21.0666 4.45044 21.9049C3.82274 22.7431 3.49351 23.7673 3.51516 24.8143C3.5368 25.8614 3.90808 26.871 4.56989 27.6827C5.2317 28.4943 6.146 29.0612 7.16724 29.2931C8.18843 29.5251 9.25793 29.4087 10.2054 28.9626C11.1528 28.5164 11.9238 27.7662 12.3956 26.8312C12.8674 25.8963 13.0129 24.8303 12.8088 23.8032H12.8097ZM10.2737 26.7902C10.0022 27.0624 9.67963 27.2781 9.32453 27.4251C8.96933 27.572 8.58853 27.6472 8.20413 27.6463C7.42863 27.6446 6.68509 27.337 6.13512 26.7902C5.82165 26.4756 5.58396 26.0937 5.44008 25.6735C5.29621 25.2533 5.24993 24.8058 5.30476 24.365C5.35958 23.9243 5.51407 23.5018 5.75651 23.1297C5.99895 22.7575 6.32296 22.4455 6.70396 22.2172C7.08496 21.9889 7.51293 21.8505 7.95543 21.8122C8.39793 21.774 8.84333 21.8371 9.25783 21.9967C9.67233 22.1563 10.045 22.4082 10.3477 22.7332C10.6503 23.0583 10.8749 23.4481 11.0045 23.8729C11.0429 23.9998 11.0725 24.1291 11.093 24.2601C11.1388 24.5459 11.1418 24.8369 11.1017 25.1235C11.015 25.7546 10.7242 26.3399 10.2737 26.7902Z" fill="#1F1B34"/>
<path d="M36.4121 23.6114C36.1834 22.4657 35.536 21.4463 34.5961 20.7524C33.6562 20.0584 32.4913 19.7396 31.3291 19.8583C30.1668 19.977 29.0905 20.5245 28.3103 21.3941C27.53 22.2637 27.1018 23.3929 27.1093 24.5612C27.1168 25.7295 27.5595 26.853 28.3509 27.7125C29.1423 28.5719 30.2257 29.1056 31.3894 29.2093C32.5531 29.3129 33.7137 28.9792 34.6446 28.2732C35.5754 27.5671 36.2098 26.5395 36.4237 25.391C36.4759 25.1066 36.5022 24.8181 36.5021 24.5289C36.5024 24.2209 36.4722 23.9135 36.4121 23.6114ZM33.8761 26.5985C33.6047 26.8706 33.2821 27.0862 32.9269 27.2331C32.5717 27.3799 32.191 27.455 31.8066 27.4541C31.0312 27.4525 30.2876 27.1451 29.7376 26.5985C29.2104 26.0752 28.9022 25.3709 28.8754 24.6287C28.8487 23.8864 29.1054 23.1618 29.5935 22.6019C30.0817 22.0421 30.7645 21.689 31.5035 21.6144C32.2425 21.5398 32.9823 21.7493 33.5724 22.2002C33.6795 22.2815 33.781 22.3699 33.8761 22.4649C34.2172 22.8032 34.4684 23.2212 34.607 23.6811C34.6455 23.808 34.6751 23.9374 34.6955 24.0683C34.72 24.22 34.7321 24.3734 34.7321 24.5271C34.7324 25.3032 34.4246 26.0476 33.8761 26.5966V26.5985Z" fill="#1F1B34"/>
<path d="M29.8645 20.6381C30.0843 21.1886 28.6332 23.2747 27.1454 24.0734C27.2291 23.276 27.5156 22.5133 27.9776 21.858C28.114 21.6647 28.2646 21.4819 28.4281 21.3111C28.6724 21.0557 28.945 20.829 29.2406 20.6354C29.4712 20.4833 29.7152 20.3526 29.9696 20.2449L29.8645 20.6381Z" fill="#06060A"/>
<path d="M4.29548 25.541C4.29272 25.5122 4.2958 25.4831 4.30454 25.4556C4.31329 25.428 4.32751 25.4025 4.34637 25.3805C4.36522 25.3586 4.38831 25.3407 4.41425 25.3279C4.4402 25.3151 4.46846 25.3077 4.49734 25.3061C4.52594 25.3027 4.55492 25.3052 4.58252 25.3134C4.61013 25.3216 4.63578 25.3353 4.65792 25.3537C4.68006 25.3721 4.69823 25.3949 4.71132 25.4205C4.72441 25.4461 4.73215 25.4742 4.73406 25.5029C4.7444 25.6375 4.76791 25.7707 4.80426 25.9007C4.99098 26.6219 5.52223 27.2696 6.20305 27.7179C6.88386 28.1661 7.71194 28.4244 8.48634 28.3652C8.64134 28.3521 8.79494 28.3251 8.94514 28.2844C8.97324 28.2772 9.00254 28.2756 9.03134 28.2799C9.06004 28.2841 9.08774 28.294 9.11254 28.3091C9.13744 28.3241 9.15904 28.344 9.17614 28.3675C9.19324 28.391 9.20544 28.4176 9.21214 28.4459C9.22644 28.5022 9.21804 28.5619 9.18884 28.6121C9.15954 28.6623 9.11174 28.699 9.05564 28.7143C8.87864 28.7563 8.69874 28.7857 8.51754 28.8024C7.64224 28.873 6.71779 28.59 5.9599 28.0835C5.20201 27.577 4.59827 26.8402 4.37393 26.0117C4.33285 25.8576 4.30658 25.7 4.29548 25.541Z" fill="#06060A"/>
<path d="M13.8585 24.2684C13.5397 23.8458 12.1734 21.7763 11.538 21.0845C9.56174 18.9315 6.42645 20.0431 6.42645 20.0431C4.84874 20.5207 3.79448 22.3512 3.53344 23.4022C3.45527 23.7236 3.26348 24.0058 2.99347 24.1968L2.45166 24.5638V24.9125L3.92753 24.2496C3.99618 24.2187 4.05756 24.1738 4.10768 24.1177C4.15779 24.0616 4.19552 23.9955 4.21839 23.9238C4.45466 23.1829 5.4144 20.8569 8.15964 20.8569C11.4243 20.8569 12.4698 24.0454 12.4698 24.0454L13.8585 24.2684Z" fill="#06060A"/>
<path fill-rule="evenodd" clip-rule="evenodd" d="M8.45377 26.159C8.73777 26.1097 9.00067 25.9773 9.20947 25.7786C9.41817 25.5798 9.56327 25.3237 9.62637 25.0424C9.68947 24.7612 9.66777 24.4676 9.56407 24.1988C9.46027 23.9299 9.27907 23.6978 9.04347 23.5319C8.80777 23.366 8.52817 23.2737 8.24007 23.2667C7.95197 23.2597 7.66827 23.3383 7.42477 23.4926C7.18134 23.6469 6.98911 23.8698 6.87241 24.1334C6.75572 24.3969 6.71979 24.6891 6.76917 24.973C6.83695 25.3528 7.05197 25.6905 7.36747 25.9126C7.68297 26.1347 8.07337 26.2233 8.45377 26.159Z" fill="#1F1B34"/>
<path d="M6.82234 25.2621L7.46971 24.6147C7.62481 24.4587 7.82451 24.3546 8.04131 24.317L12.3262 23.583C12.535 23.5472 12.7489 23.5545 12.9547 23.6045L13.9796 23.8523C14.0876 23.8784 14.1983 23.8917 14.3095 23.8917H15.0972C15.1499 23.8917 15.2017 23.9056 15.2472 23.932C15.2928 23.9584 15.3307 23.9965 15.3568 24.0422L16.1418 25.4125H15.0669C15.0446 25.413 15.0231 25.421 15.0059 25.4353C14.9888 25.4495 14.977 25.4691 14.9724 25.491C14.9568 25.5552 14.8912 25.6355 14.66 25.6355H6.97695C6.9339 25.635 6.89194 25.6219 6.85628 25.5978C6.82062 25.5737 6.79283 25.5396 6.77636 25.4998C6.75989 25.46 6.75547 25.4163 6.76364 25.374C6.77182 25.3318 6.79223 25.2928 6.82234 25.2621Z" fill="#06060A"/>
<path d="M8.66666 24.7056C8.63426 24.8269 8.55516 24.9305 8.44666 24.9938C8.33826 25.0571 8.20916 25.0751 8.08756 25.0437C7.96596 25.0123 7.86166 24.9341 7.79746 24.8262C7.73316 24.7183 7.71416 24.5893 7.74456 24.4675L9.23596 18.6411C9.25196 18.5808 9.27966 18.5243 9.31756 18.4748C9.35556 18.4254 9.40286 18.3839 9.45696 18.3528C9.51096 18.3218 9.57066 18.3017 9.63256 18.2939C9.69436 18.286 9.75716 18.2905 9.81726 18.3071C9.93916 18.3391 10.0437 18.4177 10.1083 18.526C10.1729 18.6342 10.1925 18.7635 10.1627 18.8861L8.66666 24.7056Z" fill="#06060A"/>
<path d="M13.6466 24.3028C13.6358 24.3243 13.6209 24.3436 13.6027 24.3594C13.5845 24.3752 13.5634 24.3873 13.5405 24.3949C13.5177 24.4026 13.4936 24.4056 13.4695 24.404C13.4455 24.4023 13.422 24.3959 13.4004 24.3851C13.3789 24.3744 13.3596 24.3595 13.3438 24.3413C13.328 24.3231 13.3159 24.302 13.3083 24.2791C13.3006 24.2563 13.2976 24.2321 13.2992 24.2081C13.3009 24.184 13.3073 24.1606 13.3181 24.139L14.3471 22.0608C14.3691 22.0174 14.4074 21.9846 14.4536 21.9694C14.4998 21.9543 14.5501 21.9581 14.5935 21.98C14.6151 21.9906 14.6345 22.0054 14.6505 22.0235C14.6664 22.0416 14.6787 22.0627 14.6865 22.0855C14.6942 22.1084 14.6975 22.1325 14.6959 22.1566C14.6944 22.1807 14.6881 22.2043 14.6774 22.2259L13.6466 24.3028Z" fill="#06060A"/>
<path d="M13.8586 23.7756C13.8647 23.823 13.852 23.8709 13.8233 23.9091C13.7946 23.9473 13.7522 23.9728 13.705 23.9802C13.6578 23.9876 13.6096 23.9763 13.5706 23.9487C13.5316 23.9212 13.5049 23.8795 13.4962 23.8325L13.1292 21.5428C13.1219 21.4948 13.134 21.4458 13.1628 21.4067C13.1917 21.3675 13.2348 21.3414 13.2828 21.3341C13.3067 21.3301 13.3311 21.3309 13.3546 21.3365C13.3781 21.342 13.4003 21.3521 13.4199 21.3662C13.4395 21.3803 13.4561 21.3981 13.4688 21.4187C13.4815 21.4392 13.49 21.4621 13.4939 21.4859L13.8586 23.7756Z" fill="#06060A"/>
<path d="M4.91658 17.1046L3.64756 17.0468C3.53847 17.0418 3.446 17.1262 3.44103 17.2353L3.41458 17.8155C3.40961 17.9246 3.49401 18.0171 3.6031 18.0221L4.87212 18.0799C4.98121 18.0849 5.07368 18.0005 5.07865 17.8914L5.1051 17.3112C5.11007 17.2021 5.02567 17.1096 4.91658 17.1046Z" fill="#06060A"/>
<path d="M17.7828 25.7392L16.3235 26.1727L13.7599 22.1048L9.18324 18.7397L3.87937 18.1617C3.83265 18.1566 3.78945 18.1344 3.75804 18.0995C3.72663 18.0645 3.70923 18.0192 3.70917 17.9722V17.0546C3.70916 17.0312 3.71401 17.0079 3.72341 16.9864C3.73281 16.9649 3.74656 16.9456 3.7638 16.9296C3.78103 16.9137 3.80138 16.9015 3.82356 16.8938C3.84574 16.8861 3.86927 16.8831 3.89268 16.8849L10.0893 17.3363C10.2467 17.3477 10.4042 17.3142 10.5435 17.2398C10.6828 17.1655 10.7983 17.0533 10.8765 16.9161L11.1724 16.3972L19.2413 18.0383C19.3718 18.048 19.4944 18.1047 19.5863 18.1979C19.9074 18.5232 20.6621 19.2962 20.6992 19.4146C20.7364 19.5329 20.5488 19.7274 20.6992 19.8646C20.8497 20.0018 22.4068 21.4786 21.8141 23.961C21.2213 26.4434 17.7828 25.7392 17.7828 25.7392Z" fill="#1F1B34"/>
<path d="M2.37231 15.3196L3.70916 15.5086L4.51935 15.7715L4.92858 16.6188C4.92858 16.6188 5.07125 17.0969 5.48139 17.0969C5.89154 17.0969 9.51856 17.3909 9.51856 17.3909C9.51856 17.3909 10.0173 17.4868 10.443 17.3661C10.5994 17.3198 10.7361 17.223 10.8316 17.0909C10.8619 17.0496 11.0422 17.0037 11.0491 16.9533L11.1826 15.371L2.37231 15.3196Z" fill="#1F1B34"/>
<path d="M17.6888 22.5995L17.6843 22.5961H17.6893L17.6888 22.5995Z" fill="#5000B4"/>
<path d="M24.2923 23.5307V23.532L24.2657 23.8935L24.0923 26.2911H17.5736V23.5307H24.2923Z" fill="#1F1B34"/>
<path fill-rule="evenodd" clip-rule="evenodd" d="M29.6324 19.3187C29.6324 19.3187 33.0415 18.7415 34.9688 20.5652C34.984 20.5791 34.9946 20.5974 34.9992 20.6175C35.0038 20.6376 35.0023 20.6586 34.9947 20.6778C34.9872 20.697 34.974 20.7135 34.957 20.7251C34.9399 20.7366 34.9197 20.7428 34.8991 20.7427H32.6222C32.6222 20.7427 32.0432 20.6968 32.0432 21.1483C32.0432 21.5997 31.9974 21.9589 31.7074 22.2034C31.4175 22.448 31.2675 22.481 31.2675 22.481L29.6324 19.3187Z" fill="#38008F"/>
<path d="M29.809 20.9221L26.9817 24.1899L25.743 25.624C25.4877 25.9204 25.1721 26.1589 24.8173 26.3237C24.4625 26.4885 24.0766 26.5757 23.6855 26.5796H23.6552L23.7162 26.2902L24.2208 23.8926L24.2965 23.5311L25.6765 16.9331C25.7089 16.7228 25.7089 16.5089 25.6765 16.2986C25.6301 15.9439 25.481 15.6104 25.2476 15.3393C24.6434 14.6512 24.4924 12.839 24.4924 12.839L25.1613 12.4426L28.4186 17.118L29.809 20.9221Z" fill="#1F1B34"/>
<path d="M32.263 24.3087C32.3214 24.4207 32.3328 24.5512 32.2949 24.6716C32.257 24.792 32.1729 24.8924 32.0609 24.9508C31.949 25.0091 31.8185 25.0206 31.698 24.9827C31.5776 24.9448 31.4772 24.8606 31.4189 24.7487L27.8244 17.4542C27.7954 17.3988 27.7777 17.3382 27.7723 17.2759C27.7669 17.2135 27.774 17.1508 27.7931 17.0912C27.8123 17.0316 27.8431 16.9765 27.8837 16.9289C27.9244 16.8814 27.9741 16.8424 28.0299 16.8143C28.1417 16.757 28.2715 16.7457 28.3915 16.7828C28.5115 16.8199 28.6123 16.9025 28.6722 17.0129L32.263 24.3087Z" fill="#06060A"/>
<path d="M25.6288 14.8319L25.1613 12.4426L26.0679 11.938C26.1199 11.9091 26.1785 11.8945 26.238 11.8955C26.2974 11.8966 26.3555 11.9133 26.4065 11.9439L29.0944 13.5666C29.4339 13.7713 29.7193 14.0545 29.9266 14.3924L31.257 16.5642C31.3405 16.6997 31.3847 16.8556 31.3846 17.0147V17.9704C31.3846 18.0491 31.3578 18.1255 31.3085 18.1869C31.2592 18.2484 31.1904 18.2911 31.1134 18.308L30.4868 18.4456L30.2633 20.8831C30.2613 20.9041 30.2547 20.9245 30.2439 20.9426C30.233 20.9607 30.2183 20.9762 30.2007 20.988C30.1831 20.9997 30.1632 21.0074 30.1423 21.0104C30.1213 21.0135 30.1 21.0118 30.0798 21.0056L29.0705 20.6895C29.0212 20.6743 28.976 20.6482 28.9382 20.6131C28.9003 20.578 28.8709 20.5348 28.8522 20.4867L27.4841 17.0225C27.4144 16.8459 27.3084 16.6859 27.1731 16.5528L25.8559 15.2535C25.7393 15.1392 25.6601 14.9922 25.6288 14.8319Z" fill="#FDCE03"/>
<path fill-rule="evenodd" clip-rule="evenodd" d="M32.0561 25.9686C32.34 25.9193 32.603 25.787 32.8117 25.5882C33.0204 25.3895 33.1656 25.1334 33.2287 24.8522C33.2919 24.571 33.2702 24.2774 33.1665 24.0086C33.0628 23.7397 32.8816 23.5076 32.646 23.3417C32.4104 23.1757 32.1309 23.0834 31.8428 23.0763C31.5547 23.0693 31.2709 23.1478 31.0275 23.302C30.784 23.4562 30.5917 23.6791 30.475 23.9426C30.3582 24.2061 30.3222 24.4982 30.3715 24.7822C30.4393 25.162 30.6543 25.4998 30.9697 25.7219C31.2852 25.9441 31.6756 26.0327 32.0561 25.9686Z" fill="#1F1B34"/>
<path d="M16.7231 26.4461C16.6606 26.4437 16.5993 26.4287 16.5428 26.4021C16.4863 26.3755 16.4357 26.3378 16.394 26.2912C16.3523 26.2447 16.3204 26.1902 16.3001 26.1311C16.2799 26.072 16.2717 26.0095 16.2761 25.9471C16.2805 25.8848 16.2974 25.824 16.3257 25.7683C16.3541 25.7126 16.3933 25.6632 16.4411 25.623C16.4889 25.5827 16.5443 25.5525 16.604 25.5341C16.6637 25.5157 16.7265 25.5094 16.7887 25.5158L23.6762 25.7158C23.9629 25.7141 24.2466 25.6576 24.5121 25.5492C24.711 25.4581 24.8843 25.3192 25.0167 25.1451L26.2554 22.4328C26.3089 22.3205 26.4037 22.2332 26.5201 22.1892C26.6364 22.1451 26.7653 22.1478 26.8798 22.1966C26.937 22.2203 26.9888 22.2552 27.0323 22.2993C27.0758 22.3434 27.11 22.3957 27.1329 22.4532C27.1559 22.5107 27.1671 22.5722 27.1659 22.6341C27.1648 22.696 27.1512 22.757 27.1261 22.8136L25.6764 25.5635C25.6572 25.5951 25.6434 25.6268 25.6241 25.6584C25.392 25.9801 25.0778 26.2336 24.7144 26.3925C24.3561 26.554 23.9469 26.6352 23.4858 26.6466C23.4687 26.6488 23.4515 26.6488 23.4344 26.6466L16.7231 26.4461Z" fill="#1F1B34"/>
<path d="M25.0526 12.6426C25.0434 12.6009 24.3076 11.3884 24.3076 11.3884L25.2311 10.5121L25.8733 12.1935L25.0526 12.6426Z" fill="#1F1B34"/>
<path d="M24.6483 10.2947C24.5655 10.2941 24.4846 10.2697 24.4153 10.2245C24.3459 10.1793 24.291 10.1151 24.257 10.0396L23.2936 7.90773C23.2611 7.83733 23.2487 7.75933 23.2578 7.68233C23.2669 7.60533 23.297 7.53233 23.345 7.47143C23.3924 7.41053 23.4551 7.36313 23.5267 7.33423C23.5984 7.30533 23.6763 7.29583 23.7528 7.30673L24.3368 7.39843C24.3979 7.40683 24.4563 7.42913 24.5074 7.46353C24.5585 7.49793 24.6011 7.54363 24.6318 7.59713C24.6654 7.64843 24.687 7.70673 24.6949 7.76763C24.7029 7.82843 24.697 7.89033 24.6777 7.94853L24.5075 8.51563L25.0392 9.68223C25.0855 9.78613 25.0888 9.90413 25.0483 10.0104C25.0078 10.1166 24.9268 10.2025 24.8231 10.2492C24.77 10.2798 24.7096 10.2955 24.6483 10.2947Z" fill="#1F1B34"/>
<path opacity="0.42" d="M26.1118 12.8248C26.1118 12.8248 27.2395 12.7005 28.9966 14.9351C30.7536 17.1698 30.2724 18.6741 30.2724 18.6741" fill="#FDA804"/>
<path d="M25.2512 12.5321L30.4261 19.1333L30.4889 18.4484L25.6934 12.2866L25.2512 12.5321Z" fill="#38008F"/>
<path d="M27.0183 18.102L26.878 22.1966L25.0016 23.894H21.8154L21.9728 23.5311H24.2923L25.6764 16.9331C25.7088 16.7228 25.7088 16.5089 25.6764 16.2986L26.7734 17.4565C26.855 17.5425 26.9187 17.6438 26.9607 17.7547C27.0028 17.8655 27.0224 17.9836 27.0183 18.102Z" fill="#06060A"/>
<path d="M21.8871 23.8266C21.8821 23.8433 21.871 23.8575 21.8561 23.8666C21.8412 23.8757 21.8235 23.8789 21.8063 23.8757C18.9968 23.3591 17.826 22.6287 17.749 22.5737C17.7471 22.5728 17.7454 22.5718 17.7439 22.5705L11.145 17.6781L12.6818 17.1037L20.0061 19.0008C20.1389 19.0387 20.2532 19.1241 20.3273 19.2407L20.6025 19.6756C20.6429 19.7456 20.6752 19.8199 20.6989 19.8972C22.4835 21.5304 21.999 23.4641 21.8871 23.8266Z" fill="#5000B4"/>
<path d="M20.7025 19.8972L11.145 17.6781L12.6814 17.1037L20.0061 19.0008C20.139 19.0385 20.2533 19.124 20.3273 19.2407L20.6025 19.6751C20.6441 19.7452 20.6776 19.8197 20.7025 19.8972Z" fill="#38008F"/>
<path d="M21.4407 24.2624C21.4327 24.2625 21.4247 24.2632 21.4169 24.2647C18.5096 24.7758 16.6828 23.4146 16.6828 23.4146L10.4559 18.5002C10.4243 18.475 10.3992 18.4425 10.3827 18.4055C10.3662 18.3685 10.3588 18.3282 10.3611 18.2878C10.3634 18.2473 10.3753 18.2081 10.3959 18.1732C10.4164 18.1383 10.445 18.1089 10.4793 18.0873L10.9917 17.7694C11.0345 17.743 11.0841 17.7299 11.1343 17.732C11.1846 17.734 11.233 17.751 11.2734 17.7809L17.727 22.5659C17.7362 22.5727 17.7459 22.579 17.7559 22.5847C17.8811 22.6526 18.784 23.11 21.7215 23.8518C21.7318 23.8547 21.7424 23.8562 21.7531 23.8564C21.9284 23.8624 23.5061 23.9124 24.7205 23.8871C24.9126 23.883 25.0967 23.8091 25.2384 23.6793L26.8758 22.1823L26.8822 22.1768L28.9113 20.5092C28.9572 20.473 28.9141 20.5615 28.9664 20.5854L29.4348 20.7991C29.4664 20.8134 29.5444 20.7533 29.5596 20.7826L29.8091 20.923C29.9188 20.8037 29.6068 21.1524 29.5674 21.1983L26.5395 24.7033C26.521 24.7249 26.4968 24.7407 26.4696 24.749C26.4424 24.7574 26.4135 24.7578 26.3861 24.7502C26.3587 24.7426 26.334 24.7274 26.315 24.7064C26.2959 24.6853 26.2832 24.6593 26.2784 24.6312C26.2686 24.5404 26.2313 24.4548 26.1716 24.3857C26.1118 24.3166 26.0324 24.2674 25.944 24.2445C25.9291 24.24 25.9137 24.2378 25.8981 24.2381L21.4407 24.2624Z" fill="#FDCE03"/>
<path d="M10.8701 16.8542C10.8701 16.8542 10.5269 16.216 10.7352 15.577C10.9435 14.9379 13.1139 15.9752 15.8551 15.9619C18.8967 15.9476 19.7973 15.3081 20.7923 17.4336C21.8214 19.6316 20.5171 19.0572 20.5171 19.0572C20.5065 19.2705 16.3115 17.7621 10.8701 16.8542Z" fill="#06060A"/>
<path d="M25.8719 25.1887H19.1889C18.0119 25.1868 16.869 24.7927 15.9409 24.0688L9.70394 19.1889L5.64149 18.7452C5.5189 18.7318 5.40665 18.6703 5.32944 18.5742C5.25222 18.478 5.21636 18.3551 5.22974 18.2325C5.24312 18.11 5.30466 17.9977 5.4008 17.9205C5.49695 17.8433 5.61983 17.8074 5.74242 17.8208L10.0681 18.2938L16.5139 23.3366C17.2782 23.9329 18.2195 24.2574 19.1889 24.2587H25.8719C25.9926 24.2625 26.1072 24.3132 26.1913 24.4C26.2754 24.4867 26.3224 24.6028 26.3224 24.7237C26.3224 24.8445 26.2754 24.9606 26.1913 25.0474C26.1072 25.1342 25.9926 25.1849 25.8719 25.1887Z" fill="#06060A"/>
<path d="M24.6937 11.5173C24.5539 11.5192 24.4178 11.473 24.3079 11.3865L23.6844 10.9218L22.6132 10.7176C22.5262 10.7062 22.4425 10.6771 22.3671 10.6322C22.2917 10.5873 22.2263 10.5275 22.1747 10.4564C22.1232 10.3854 22.0867 10.3046 22.0675 10.219C22.0482 10.1334 22.0466 10.0447 22.0628 9.95854C22.0789 9.87224 22.1124 9.79024 22.1613 9.71734C22.2102 9.64444 22.2735 9.58234 22.3472 9.53474C22.4209 9.48714 22.5035 9.45504 22.59 9.44034C22.6765 9.42574 22.7651 9.42894 22.8504 9.44964L24.0758 9.68224C24.1731 9.69934 24.2647 9.74024 24.3423 9.80154L25.0846 10.3571C25.2204 10.4599 25.3103 10.6121 25.3348 10.7807C25.3593 10.9494 25.3163 11.1208 25.2154 11.2581C25.1543 11.3386 25.0754 11.4038 24.9849 11.4488C24.8944 11.4938 24.7948 11.5172 24.6937 11.5173Z" fill="#1F1B34"/>
<path opacity="0.29" d="M19.9249 4.9147C19.9197 4.91994 19.9145 4.91994 19.9088 4.92562V4.91994C19.9145 4.91994 19.9197 4.9147 19.9249 4.9147Z" fill="#1A0A3E"/>
<path d="M34.1495 27.8523C34.1243 27.8667 34.0966 27.8759 34.0678 27.8793C34.039 27.8827 34.0099 27.8802 33.982 27.8721C33.9542 27.8639 33.9284 27.8503 33.906 27.8319C33.8836 27.8135 33.8651 27.7908 33.8517 27.7651C33.837 27.7405 33.8273 27.7131 33.8234 27.6846C33.8196 27.6561 33.8215 27.6272 33.8291 27.5994C33.8368 27.5717 33.8499 27.5459 33.8679 27.5234C33.8858 27.5009 33.9081 27.4823 33.9334 27.4687C34.0518 27.4033 34.1635 27.3265 34.2669 27.2394C34.8464 26.771 35.2166 26.0195 35.3432 25.2143C35.4698 24.4092 35.3629 23.5485 34.989 22.8673C34.9128 22.7311 34.8243 22.6021 34.7248 22.4819C34.7066 22.4592 34.6932 22.4331 34.6852 22.4052C34.6772 22.3773 34.6748 22.348 34.6783 22.3192C34.6817 22.2903 34.6908 22.2624 34.7051 22.2371C34.7194 22.2118 34.7385 22.1896 34.7615 22.1718C34.8069 22.1355 34.8647 22.1186 34.9225 22.1245C34.9804 22.1304 35.0335 22.1587 35.0707 22.2034C35.1821 22.3471 35.2832 22.4986 35.373 22.6567C35.7997 23.4247 35.9235 24.3835 35.7758 25.2832C35.6281 26.1828 35.2069 27.0389 34.5454 27.5853C34.4221 27.6862 34.2895 27.7753 34.1495 27.8514V27.8523Z" fill="#06060A"/>
<path d="M17.4952 13.4717L22.9958 15.6866C23.2287 15.7798 23.4168 15.9589 23.5212 16.1869C23.6257 16.4149 23.6384 16.6743 23.5569 16.9115C23.4753 17.1506 23.3038 17.3486 23.0788 17.4635C22.8538 17.5784 22.5928 17.6013 22.3513 17.5272L16.6859 15.8146L17.4952 13.4717Z" fill="#38008F"/>
<path d="M14.4622 13.7194L18.4196 14.1323L22.5192 16.3128L21.9108 18.1236L17.1327 17.2377C16.5424 17.1283 15.9944 16.8561 15.5505 16.4517C15.1067 16.0474 14.7847 15.527 14.621 14.9493L14.4622 13.7194Z" fill="#5000B4"/>
<path d="M18.3991 14.7871C18.6187 14.3131 18.4125 13.7507 17.9384 13.5311C17.4644 13.3114 16.9021 13.5177 16.6824 13.9917C16.4628 14.4658 16.669 15.0281 17.143 15.2477C17.6171 15.4674 18.1794 15.2611 18.3991 14.7871Z" fill="#5C00CF"/>
<path d="M18.4202 13.4005V14.3479V14.3915C18.4192 14.6348 18.3248 14.8685 18.1564 15.0441C17.988 15.2198 17.7585 15.324 17.5155 15.3352L15.5753 15.4219C15.3327 15.4316 15.0957 15.348 14.9129 15.1883C14.7301 15.0285 14.6155 14.8048 14.5926 14.5631V14.5172L14.5009 13.5758L18.4202 13.4005Z" fill="#5000B4"/>
<path d="M16.5588 4.52474L18.293 4.50869L18.3095 6.38643C18.315 6.86544 17.9425 7.03924 17.4608 7.04434C16.9791 7.04934 16.5804 6.88694 16.5753 6.408L16.5588 4.52474Z" fill="#F2BAAE"/>
<path d="M18.7307 1.26105L19.8849 1.30142C20.3194 1.31702 20.6309 1.68541 20.535 2.07307L20.2919 3.03649C20.2667 3.13498 20.2087 3.22195 20.1275 3.28307C20.0462 3.3442 19.9466 3.37584 19.845 3.37277L18.6577 3.33102L18.7307 1.26105Z" fill="#5A1B00"/>
<path d="M18.6022 5.53311C18.3711 5.52536 18.1437 5.47207 17.9332 5.37629C17.7227 5.28052 17.5332 5.14415 17.3755 4.97499C17.2178 4.80584 17.0951 4.60723 17.0143 4.39054C16.9335 4.17385 16.8963 3.94335 16.9047 3.71225L16.9726 1.77715L19.5674 1.86891C19.6418 1.87139 19.7149 1.88853 19.7827 1.91935C19.8504 1.95016 19.9113 1.99404 19.9621 2.04847C20.0128 2.1029 20.0523 2.16681 20.0782 2.23653C20.1042 2.30625 20.1161 2.38041 20.1134 2.45476L20.0386 4.59355C20.0284 4.85568 19.915 5.10316 19.7231 5.28201C19.5312 5.46086 19.2764 5.55656 19.0142 5.54825L18.6013 5.53357L18.6022 5.53311Z" fill="#F2BAAE"/>
<path d="M19.461 0.361859L19.1366 0.350849C18.5587 0.329839 17.9951 0.533759 17.5644 0.919719L17.2126 1.23215C17.0804 1.22742 16.9488 1.25131 16.8267 1.3022C16.7046 1.35309 16.595 1.42977 16.5053 1.52698C16.4156 1.62419 16.3481 1.73963 16.3072 1.86541C16.2663 1.99118 16.253 2.12431 16.2684 2.25566L16.4304 3.59894L17.3869 3.63244C17.4422 3.63429 17.496 3.61414 17.5366 3.57639C17.5771 3.53864 17.6009 3.48637 17.603 3.43104L17.6154 3.07916C17.643 2.94935 17.7154 2.8334 17.8199 2.75156C17.9244 2.66972 18.0543 2.62719 18.187 2.6314L18.0792 1.99783L19.1238 2.03454C19.2885 2.04258 19.4529 2.01339 19.6048 1.94914C19.7566 1.88488 19.8921 1.78721 20.001 1.66339C20.4983 1.0702 20.0491 0.382499 19.461 0.361859Z" fill="#5A1B00"/>
<path d="M16.8613 3.07595C16.5975 3.06677 16.3488 3.25624 16.3282 3.52508C16.3222 3.59146 16.3298 3.65836 16.3506 3.72169C16.3713 3.78502 16.4048 3.84346 16.4489 3.89344C16.493 3.94341 16.5468 3.98388 16.607 4.01236C16.6673 4.04084 16.7327 4.05674 16.7993 4.05909L17.1787 4.0724L17.2008 3.44571C17.2046 3.3517 17.171 3.26 17.1074 3.19069C17.0438 3.12138 16.9553 3.08012 16.8613 3.07595Z" fill="#F2BAAE"/>
<path d="M19.6642 4.28802C19.656 4.52428 19.4954 4.71146 19.2922 4.70412C19.0889 4.69678 18.9357 4.50456 18.944 4.2738L19.6642 4.28802Z" fill="white"/>
<path d="M18.9997 3.29569C19.0026 3.21365 18.9458 3.14506 18.8729 3.14251C18.8 3.13995 18.7385 3.20438 18.7356 3.28642C18.7328 3.36846 18.7895 3.43705 18.8625 3.43961C18.9354 3.44217 18.9969 3.37773 18.9997 3.29569Z" fill="#5A1B00"/>
<path d="M19.8956 3.32716C19.8984 3.24512 19.8417 3.17654 19.7687 3.17398C19.6958 3.17142 19.6343 3.23585 19.6315 3.31789C19.6286 3.39994 19.6854 3.46852 19.7583 3.47108C19.8312 3.47364 19.8927 3.4092 19.8956 3.32716Z" fill="#5A1B00"/>
<path d="M19.0623 2.78096C19.072 2.81949 19.0481 2.86858 19.0096 2.86721L18.4852 2.91308C18.4869 2.88048 18.4998 2.84946 18.5217 2.82523C18.5436 2.80101 18.5731 2.78505 18.6054 2.78004L18.9981 2.73416C19.0127 2.73239 19.0275 2.73623 19.0394 2.74491C19.0513 2.7536 19.0595 2.76648 19.0623 2.78096Z" fill="#5A1B00"/>
<path d="M19.5899 2.8048C19.5775 2.84288 19.5977 2.89334 19.6358 2.89655L20.1556 2.98051C20.1562 2.94784 20.1455 2.91596 20.1254 2.89022C20.1052 2.86449 20.077 2.84648 20.0451 2.83921L19.6569 2.76489C19.6429 2.76295 19.6287 2.76584 19.6165 2.77309C19.6043 2.78035 19.5949 2.79153 19.5899 2.8048Z" fill="#5A1B00"/>
<path d="M21.0927 24.2391C21.3192 24.0322 21.3152 23.659 21.0837 23.4055C20.8522 23.1519 20.4809 23.1141 20.2543 23.321C20.0277 23.5279 20.0317 23.9012 20.2632 24.1547C20.4947 24.4082 20.8661 24.446 21.0927 24.2391Z" fill="#340D68"/>
<path d="M21.7159 24.5528L19.9565 24.422L20.0881 23.7376L21.2612 23.8266L21.8631 24.2395C21.8876 24.2573 21.9064 24.2816 21.9176 24.3097C21.9287 24.3378 21.9316 24.3685 21.926 24.3982C21.9147 24.4445 21.8874 24.4854 21.849 24.5137C21.8106 24.5419 21.7635 24.5558 21.7159 24.5528Z" fill="#340D68"/>
<path d="M19.8873 23.6715L20.3525 16.5798L22.8253 17.095L21.409 23.9032L19.8873 23.6715Z" fill="#5000B4"/>
<path d="M19.9936 21.9773L21.7957 22.0906L21.7232 22.3929L19.973 22.2833L19.9936 21.9773Z" fill="#B5C2D7"/>
<path d="M20.0258 21.5208L21.8764 21.6511L21.8012 21.9864L20.0051 21.8552L20.0258 21.5208Z" fill="#B5C2D7"/>
<path d="M17.0557 6.10612L17.8012 6.19558C18.277 6.25162 18.7124 6.4905 19.0153 6.86173C19.3182 7.23293 19.4649 7.70743 19.4243 8.18483L18.9655 13.5758C18.9589 13.6552 18.9366 13.7325 18.9 13.8032C18.8633 13.8739 18.813 13.9367 18.752 13.9878C18.6909 14.039 18.6204 14.0776 18.5444 14.1014C18.4683 14.1251 18.3883 14.1336 18.309 14.1263L14.7091 13.7951C14.6266 13.7876 14.5465 13.7632 14.4739 13.7234C14.4013 13.6836 14.3376 13.6293 14.2869 13.5638C14.2362 13.4984 14.1995 13.4232 14.1792 13.3429C14.1588 13.2626 14.1552 13.179 14.1686 13.0973L15.0596 7.61183C15.1338 7.15183 15.383 6.73833 15.755 6.45774C16.1269 6.17715 16.593 6.05117 17.0557 6.10612Z" fill="#5000B4"/>
<path d="M20.0314 9.08013L14.5332 8.77563L14.5157 9.09173L20.0139 9.39623L20.0314 9.08013Z" fill="#B5C2D7"/>
<path d="M19.9561 9.53084L14.4579 9.22634L14.4404 9.54244L19.9386 9.84694L19.9561 9.53084Z" fill="#B5C2D7"/>
<path d="M16.5106 5.67992L16.4684 6.31715C16.4684 6.31715 16.6721 6.85983 17.1809 6.97273C17.7264 7.06033 18.2609 6.85203 18.2443 6.86173L18.4003 6.70022L18.398 6.42496C18.398 6.42496 17.9333 5.83544 17.3809 5.83406C16.8286 5.83269 16.5106 5.67992 16.5106 5.67992Z" fill="#38008F"/>
<path d="M14.7407 9.56754L14.17 13.0955C14.1566 13.1772 14.1602 13.2608 14.1806 13.3411C14.2009 13.4213 14.2376 13.4965 14.2883 13.562C14.339 13.6275 14.4027 13.6818 14.4753 13.7216C14.5479 13.7614 14.628 13.7858 14.7104 13.7933L18.3086 14.1245C18.44 14.1364 18.5718 14.1049 18.6836 14.0348C18.7955 13.9647 18.8813 13.8599 18.9279 13.7364L14.5145 12.9739L14.7407 9.56754Z" fill="#38008F"/>
<path d="M17.1877 11.9888L18.5226 12.1114L18.5292 12.0397L17.1943 11.9171L17.1877 11.9888Z" fill="#38008F"/>
<path d="M18.4886 12.4793L18.5292 12.0384L18.4574 12.0318L18.4169 12.4727L18.4886 12.4793Z" fill="#38008F"/>
<path opacity="0.29" d="M21.2091 4.54401C21.2038 4.54969 21.1986 4.54969 21.1938 4.55537V4.55013C21.199 4.55013 21.2043 4.54445 21.2095 4.54401H21.2091Z" fill="#1C0641"/>
<path d="M15.9065 0.710515C15.9065 0.710515 15.3036 1.26105 15.2032 2.09097C15.1027 2.92088 15.1688 4.15176 15.6661 4.80643C16.3973 5.76985 19.2628 6.19283 19.834 5.91436C20.4052 5.63589 20.6786 5.10555 20.7107 4.82891C20.7293 4.66323 20.7161 4.49552 20.6717 4.33481C20.7433 3.58839 20.7401 3.64391 20.6323 2.9585C20.5244 2.2731 20.4189 2.15474 20.4189 2.15474C20.4189 2.15474 20.0845 0.958255 18.9678 0.365525C17.4466 -0.443285 15.9065 0.710515 15.9065 0.710515Z" fill="#38008F"/>
<path d="M20.7452 4.24352C20.7452 4.24352 21.0741 4.34444 21.1062 4.68439C21.1384 5.02434 20.9324 5.72214 20.5644 5.87032C20.3103 5.96987 19.5914 6.0295 19.0455 6.00473C18.6638 5.98549 18.285 5.92865 17.9146 5.83499C17.9146 5.83499 19.2092 5.85426 19.3886 5.67534C19.568 5.49642 19.3937 4.68394 19.3937 4.68394C19.3937 4.68394 19.9511 4.7087 20.3658 4.62933C20.6667 4.583 20.8925 4.46832 20.7452 4.24352Z" fill="#5000B4"/>
<path d="M20.4006 2.08408C20.4074 2.10815 20.4159 2.13175 20.4258 2.15473C20.4258 2.15473 20.5249 2.28227 20.6377 2.95988C20.7506 3.63748 20.746 3.64803 20.8052 4.24076C20.8052 4.24076 20.869 4.4362 20.729 4.50318C20.2244 4.75138 19.483 4.71835 18.7953 4.60595C18.7435 3.80998 18.7733 3.00484 18.8036 2.19969C19.3382 2.20424 19.8722 2.16558 20.4006 2.08408Z" fill="#23094E"/>
<path d="M16.729 2.60066C16.9401 2.27172 17.3828 2.07032 17.9599 2.17675C18.109 2.18639 18.2746 2.19006 18.4563 2.19327C18.5774 2.19878 18.6857 2.19923 18.8036 2.19969C18.9018 2.67406 18.9238 3.78016 18.7953 4.60595C18.3825 4.53461 17.9739 4.44089 17.5713 4.32518C17.1662 4.12836 16.8965 3.88155 16.7419 3.62418C16.5327 3.25945 16.5437 2.88418 16.729 2.60066Z" fill="#130335"/>
<path d="M18.4361 0.0191574C18.4361 0.0191574 19.6289 0.130637 20.6717 0.888067C21.4741 1.46887 21.5383 1.79643 21.314 2.08087C21.0896 2.36531 19.0018 2.21162 18.4558 2.19235L17.9099 2.17263C17.9099 2.17263 19.5234 2.29879 19.1536 1.54961C18.8935 1.02753 18.1755 0.723827 17.5787 0.557747C16.9818 0.391677 16.3138 0.465997 16.3138 0.465997C16.5291 0.344057 16.7575 0.246947 16.9947 0.176507C17.4582 0.0209875 17.9499 -0.0326826 18.4361 0.0191574Z" fill="#5000B4"/>
<path d="M19.9143 3.31175C19.9189 3.3386 19.933 3.36288 19.9541 3.38015C19.9752 3.39742 20.0017 3.40653 20.029 3.4058C20.0556 3.40192 20.0797 3.38783 20.0961 3.36651C20.1126 3.3452 20.1201 3.31832 20.1171 3.29157L20.0372 2.60708C20.0323 2.58066 20.0181 2.55687 19.9971 2.54003C19.9762 2.5232 19.9499 2.51443 19.923 2.51533C19.8963 2.51888 19.872 2.5328 19.8554 2.55408C19.8389 2.57537 19.8313 2.60231 19.8345 2.6291L19.9143 3.31175Z" fill="#5000B4"/>
<path d="M20.2635 3.94761C20.2686 3.97403 20.2829 3.99777 20.304 4.01459C20.325 4.0314 20.3513 4.04017 20.3782 4.03935C20.4049 4.0357 20.4292 4.02167 20.4456 4.0003C20.4621 3.97893 20.4695 3.95192 20.4663 3.92513L20.3424 2.6314C20.3375 2.60497 20.3232 2.58118 20.3023 2.56435C20.2813 2.54752 20.255 2.53875 20.2282 2.53964C20.2014 2.54342 20.1772 2.55746 20.1607 2.57879C20.1442 2.60012 20.1366 2.62706 20.1396 2.65388L20.2635 3.94761Z" fill="#5000B4"/>
<path d="M16.6154 0.298548C16.6154 0.298548 17.6503 0.180648 18.6798 0.432048C19.7093 0.683458 20.4998 1.35831 20.5222 1.73725C20.5447 2.1162 20.1488 2.25521 20.1488 2.25521C20.1488 2.25521 20.6291 2.27769 20.786 2.21575C20.9429 2.15382 21.3659 1.27573 19.8612 0.616018C18.3335 -0.0533322 17.1902 0.111368 17.1902 0.111368C17.1902 0.111368 16.7117 0.239368 16.6154 0.298548Z" fill="#FDCC01"/>
<path d="M21.0498 1.91125C21.1913 1.72509 21.112 1.42661 20.8726 1.24457C20.6332 1.06252 20.3244 1.06586 20.1828 1.25201C20.0413 1.43817 20.1206 1.73665 20.36 1.91869C20.5994 2.10074 20.9082 2.0974 21.0498 1.91125Z" fill="#FDCC01"/>
<path d="M20.1437 4.96425C20.1375 4.96476 20.1315 4.96651 20.126 4.96939C20.1206 4.97228 20.1157 4.97624 20.1118 4.98104C20.1079 4.98584 20.105 4.99138 20.1033 4.99732C20.1016 5.00326 20.1011 5.00949 20.1019 5.01563C20.1024 5.02179 20.1042 5.02779 20.1071 5.03326C20.1099 5.03873 20.1139 5.04356 20.1187 5.04746C20.1235 5.05136 20.129 5.05424 20.135 5.05595C20.1409 5.05765 20.1472 5.05814 20.1533 5.05738L20.4653 5.02159C20.4714 5.02108 20.4774 5.01933 20.4829 5.01645C20.4884 5.01356 20.4932 5.0096 20.4971 5.0048C20.501 5 20.5039 4.99446 20.5056 4.98852C20.5073 4.98258 20.5078 4.97635 20.507 4.97021C20.5065 4.96405 20.5047 4.95805 20.5019 4.95258C20.499 4.94711 20.495 4.94228 20.4902 4.93838C20.4854 4.93448 20.4799 4.93159 20.4739 4.92989C20.468 4.92818 20.4618 4.9277 20.4556 4.92846L20.1437 4.96425Z" fill="#340D68"/>
<path d="M21.365 12.1999C21.3751 12.0574 21.3361 11.9157 21.2544 11.7985V11.793C21.2544 11.793 20.0956 9.78314 19.6029 8.92254C19.3164 8.40804 18.9858 7.91944 18.6147 7.46224L18.5926 7.42514C18.1174 6.75624 17.1572 6.63004 16.4662 7.17464C15.7753 7.71914 15.6758 8.68854 16.2148 9.30654L16.2194 9.31294L19.7946 12.9042C19.9428 13.0996 20.2126 13.1909 20.5172 13.1267C20.9636 13.034 21.3439 12.6252 21.365 12.1999Z" fill="#5000B4"/>
<path d="M19.6006 8.92164C19.4038 8.57434 19.2193 8.28944 19.0602 8.05914L18.6298 8.50454L19.4423 9.47624L19.9378 9.54734C19.8268 9.32944 19.7093 9.11654 19.6006 8.92164Z" fill="#38008F"/>
<path d="M24.4203 9.43724C24.5381 9.39774 24.6665 9.40494 24.779 9.45744C24.8916 9.51004 24.9796 9.60374 25.025 9.71944C25.0809 9.84154 25.0863 9.98094 25.0401 10.107C25.0205 10.1676 24.9885 10.2233 24.9461 10.2707C24.9036 10.3181 24.8518 10.3561 24.7938 10.3823C24.7364 10.4094 24.6737 10.4235 24.6103 10.4235C24.5468 10.4235 24.4841 10.4094 24.4267 10.3823C24.3056 10.3273 24.2094 10.2291 24.1569 10.1069C24.1044 9.98474 24.0993 9.84743 24.1428 9.72173C24.1624 9.66113 24.1944 9.60544 24.2368 9.55804C24.2793 9.51064 24.3311 9.47264 24.3891 9.44644L24.4203 9.43724Z" fill="#F2BAAE"/>
<path d="M24.2987 9.54504L23.7078 10.0717L24.0253 10.5832L24.7919 10.3584L24.2987 9.54504Z" fill="#F2BAAE"/>
<path d="M24.4102 10.836C24.4052 10.836 22.1742 12.2059 21.6397 12.5532C21.3508 12.7448 21.0456 12.9107 20.7277 13.0491L20.7098 13.0606C20.3162 13.2597 19.8299 13.0789 19.6271 12.6582C19.4243 12.2376 19.5734 11.7233 19.962 11.5255H19.967L23.8441 9.74144L24.4102 10.836Z" fill="#5000B4"/>
<path d="M22.5063 16.3252C22.8137 16.4257 22.9513 16.7913 22.8178 17.1377C22.6843 17.4841 22.3219 17.6983 22.0081 17.607C21.6943 17.5157 21.5397 17.1455 21.6824 16.7849C21.8251 16.4243 22.1939 16.2215 22.5063 16.3252Z" fill="#5000B4"/>
<path d="M12.1023 12.8018L12.1064 14.3933C12.1069 14.5206 12.0822 14.6467 12.0338 14.7645C11.9855 14.8822 11.9144 14.9893 11.8246 15.0796C11.7348 15.1698 11.6281 15.2415 11.5106 15.2904C11.3931 15.3394 11.2671 15.3648 11.1398 15.365L0.99276 15.3934C0.86542 15.3939 0.73925 15.3692 0.62145 15.3208C0.50364 15.2725 0.39652 15.2014 0.3062 15.1116C0.21588 15.0219 0.14413 14.9152 0.0950596 14.7977C0.0459796 14.6802 0.0205297 14.5542 0.0201697 14.4268L0.00823975 10.0492L4.07157 10.0378L6.19293 12.389L12.1009 12.3729L12.1023 12.8018Z" fill="#5000B4"/>
<path d="M12.101 13.5717L6.19295 13.5909L4.07159 10.7833L0.00826001 10.7975L0 7.37464C0 6.73554 0.43629 6.21669 0.97214 6.21439L11.1192 6.1809C11.6555 6.1809 12.0904 6.69519 12.0918 7.33474L12.101 13.5717Z" fill="#FDCE03"/>
<path d="M7.08799 8.95604C7.01203 8.96234 6.93801 8.98334 6.87008 9.01794C6.78552 9.05424 6.69464 9.07364 6.60261 9.07484C6.44617 9.07484 6.18284 9.01424 6.18238 8.67934C6.31661 8.70604 6.45347 8.71694 6.59023 8.71194C7.20452 8.71564 7.34904 8.45774 7.34814 8.18984C7.34814 7.81004 7.03386 7.55904 6.58105 7.56084C6.14522 7.56084 5.69425 7.87604 5.69562 8.57014C5.69562 9.10094 6.01676 9.49094 6.57004 9.48774C6.88338 9.48774 7.22333 9.30744 7.30634 9.18404C7.30634 9.18444 7.24443 8.95514 7.08799 8.95604ZM6.5994 7.97424C6.81135 7.97424 6.91228 8.08484 6.91228 8.19124C6.91228 8.31424 6.80126 8.39314 6.60032 8.39354C6.30946 8.39354 6.19798 8.35544 6.19798 8.35544C6.19842 8.30384 6.20926 8.25274 6.22985 8.20544C6.25044 8.15804 6.28035 8.11524 6.31781 8.07974C6.35527 8.04414 6.3995 8.01644 6.44788 7.99834C6.49626 7.98024 6.54779 7.97204 6.5994 7.97424Z" fill="#5D3EBC"/>
<path d="M8.49096 9.07533C8.41526 9.07333 8.34206 9.04833 8.28096 9.00353C8.21996 8.95883 8.17416 8.89643 8.14966 8.82483C8.12536 8.72793 8.11376 8.62833 8.11526 8.52843L8.11936 7.95863H8.27026C8.32256 7.96213 8.37506 7.95443 8.42406 7.93603C8.47316 7.91753 8.51766 7.88883 8.55476 7.85173C8.62466 7.77153 8.66056 7.66713 8.65476 7.56083H8.11796L8.11196 7.30943V7.11313C8.11196 7.06313 8.11706 7.02413 8.11706 6.99613C8.11706 6.96813 8.12256 6.94013 8.12256 6.91773C7.96066 6.91773 7.83216 6.95213 7.74816 7.02503C7.66426 7.09803 7.62066 7.20853 7.62116 7.37183L7.61926 8.63623C7.61926 9.15553 7.86746 9.49003 8.34226 9.48913C8.57716 9.48913 8.74416 9.36473 8.74376 9.17483C8.74426 9.13323 8.73856 9.09183 8.72676 9.05193C8.64916 9.06743 8.57016 9.07533 8.49096 9.07533Z" fill="#5D3EBC"/>
<path d="M9.12317 7.41404C9.16177 7.43164 9.20367 7.44104 9.24607 7.44164C9.29537 7.44094 9.34367 7.42714 9.38577 7.40144C9.42797 7.37574 9.46237 7.33924 9.48557 7.29574C9.50917 7.25354 9.52257 7.20634 9.52457 7.15804C9.52367 7.11144 9.51207 7.06554 9.49057 7.02414C9.46727 6.98324 9.43207 6.95024 9.38967 6.92964C9.35427 6.90824 9.31367 6.89684 9.27227 6.89654C9.22297 6.89754 9.17497 6.91214 9.13367 6.93894C9.09237 6.96564 9.05927 7.00344 9.03827 7.04794C9.01397 7.08984 9.00047 7.13714 8.99927 7.18564C8.99937 7.23064 9.01107 7.27484 9.03317 7.31404C9.05047 7.35694 9.08237 7.39234 9.12317 7.41404Z" fill="#5D3EBC"/>
<path d="M9.66954 9.09414C9.56354 9.09414 9.49614 9.01654 9.49564 8.89364V7.98294V7.78754C9.49564 7.73704 9.50064 7.69804 9.50064 7.67004C9.50064 7.64214 9.50614 7.61414 9.50614 7.59164C9.33824 7.59164 9.21574 7.62604 9.12634 7.69894C9.03684 7.77194 8.99834 7.88244 8.99874 8.04584L8.99554 8.97294C8.99554 9.30834 9.20934 9.48634 9.47724 9.47444C9.64474 9.46844 9.79564 9.38264 9.79524 9.20554C9.79484 9.16064 9.79084 9.11584 9.78324 9.07164C9.74844 9.09034 9.70884 9.09824 9.66954 9.09414Z" fill="#5D3EBC"/>
<path d="M10.872 7.59344C10.7688 7.59404 10.6659 7.60554 10.5651 7.62784C10.4641 7.65104 10.3691 7.69514 10.2861 7.75724C10.1975 7.82834 10.1285 7.92084 10.0857 8.02604C10.0298 8.16634 10.0035 8.31654 10.0086 8.46744V8.98724C10.0086 9.14914 10.032 9.29964 10.1269 9.37214C10.2334 9.45014 10.3563 9.45514 10.5183 9.45474C10.5183 9.43814 10.5128 9.39364 10.5123 9.35974C10.5119 9.32574 10.5068 9.29274 10.5068 9.24274V9.04734V8.37654C10.5068 8.22014 10.5339 8.01374 10.8133 7.99034C10.9697 7.97884 11.1092 7.91694 11.1087 7.74394C11.1069 7.69064 11.0973 7.63804 11.0803 7.58754L10.872 7.59344Z" fill="#5D3EBC"/>
<path d="M5.42773 8.54174C5.4369 7.96094 5.17907 7.56454 4.59185 7.56594C4.02251 7.56594 3.72018 7.97104 3.72385 8.45734C3.72385 8.90964 3.99911 9.32894 4.49688 9.32674C4.65701 9.32944 4.81369 9.27994 4.94326 9.18584V9.40924C4.94326 9.66664 4.84463 9.83964 4.58175 9.84004C4.47432 9.84004 4.36857 9.81334 4.27392 9.76254C4.19547 9.72404 4.13996 9.68504 4.06197 9.68504C3.86607 9.68504 3.81652 9.92584 3.81652 9.92584C3.96241 10.1157 4.29777 10.2469 4.57717 10.2469C5.13044 10.2469 5.4314 9.91984 5.42956 9.28354C5.43002 9.28444 5.42818 8.64224 5.42773 8.54174ZM4.59597 8.89044C4.38356 8.89044 4.21611 8.75734 4.2152 8.46144C4.2152 8.14264 4.38081 7.98024 4.59322 7.97924C4.80563 7.97834 4.95152 8.10174 4.9529 8.43804C4.95427 8.77434 4.78591 8.88994 4.59597 8.89044Z" fill="#5D3EBC"/>
</svg>