<svg data-testid="icon" name="campaign-2" color="#DBDBFF" size="16" version="1.1" xmlns="http://www.w3.org/2000/svg" viewBox="0 0 32 32"><path d="M6.005 6.013c0-0.002 0-0.005 0-0.008 0-3.312 2.685-5.997 5.997-5.997 1.539 0 2.942 0.579 4.004 1.532l-0.006-0.005c1.057-0.952 2.464-1.535 4.007-1.535 3.312 0 5.997 2.685 5.997 5.997 0 0.722-0.128 1.415-0.362 2.056l0.013-0.042h2.339c2.208 0 3.998 1.79 3.998 3.998s-1.79 3.998-3.998 3.998v0h-9.995v-1.999c0-1.104-0.895-1.999-1.999-1.999s-1.999 0.895-1.999 1.999v0 1.999h-9.995c-2.208 0-3.998-1.79-3.998-3.998s1.79-3.998 3.998-3.998v0h2.339c-0.215-0.593-0.34-1.277-0.34-1.99 0-0.003 0-0.006 0-0.009v0zM14.001 8.012v-1.999c0-1.104-0.895-1.999-1.999-1.999s-1.999 0.895-1.999 1.999c0 1.104 0.895 1.999 1.999 1.999v0zM19.998 8.012c1.104 0 1.999-0.895 1.999-1.999s-0.895-1.999-1.999-1.999c-1.104 0-1.999 0.895-1.999 1.999v0 1.999zM14.001 18.007h-11.994v9.995c0 2.208 1.79 3.998 3.998 3.998v0h7.996zM17.999 32h7.996c2.208 0 3.998-1.79 3.998-3.998v0-9.995h-11.994z"></path></svg>