<svg xmlns="http://www.w3.org/2000/svg" width="316" height="64" viewBox="0 0 316 64" fill="none">
<g clip-path="url(#clip0)">
<path d="M102.585 10.3311C103.311 10.6941 104.103 10.8922 104.928 10.8922C106.843 10.8922 108.361 9.96799 109.483 8.15263C109.945 7.32746 110.176 6.43628 110.176 5.47908C110.176 4.5879 109.978 3.76273 109.549 2.97057C109.12 2.17841 108.493 1.58429 107.668 1.1552C106.942 0.726116 106.183 0.528076 105.39 0.528076C104.499 0.528076 103.641 0.79213 102.816 1.28723C101.991 1.78233 101.331 2.47547 100.869 3.36665C100.406 4.15881 100.175 5.04999 100.175 6.0402C100.175 6.93138 100.373 7.75654 100.803 8.5157C101.199 9.24185 101.793 9.86897 102.585 10.3311Z" fill="#FFD300"/>
<path d="M54.5931 20.7611C58.5869 20.7611 60.5013 22.9396 60.5013 24.92C60.5013 27.2634 58.3889 28.7817 54.5601 28.7817C49.015 28.7817 46.9025 27.9896 46.9025 27.9896C46.9025 24.6229 49.5431 20.7611 54.5931 20.7611ZM68.819 24.8869C68.819 17.6585 62.8778 12.9055 54.23 12.9055C46.0114 12.9055 37.3966 18.8137 37.3966 31.9834C37.3966 42.0504 43.4698 49.4769 53.999 49.4769C59.9072 49.4769 66.4095 46.1103 68.0598 43.7998C68.0598 43.7998 66.9376 39.4759 63.868 39.4759C62.2507 39.4759 61.0624 40.103 59.7421 40.6642C58.3559 41.2253 56.7385 41.7204 54.6261 41.7204C51.6885 41.7204 46.6385 40.5321 46.6385 34.2278C46.6385 34.2278 49.015 34.921 54.4281 34.921C66.0134 34.888 68.819 30.003 68.819 24.8869Z" fill="#FFD300"/>
<path d="M90.4383 41.8525C86.4445 41.8525 84.3651 38.4858 84.002 37.0336C83.6059 35.5813 83.3419 33.5348 83.3419 31.4224L83.4079 20.5962H86.3125C88.656 20.5962 90.4713 19.9031 91.7256 18.5498C93.0129 17.1635 93.64 15.3481 93.64 13.0377H83.4079L83.3419 8.2187C83.3419 6.70039 83.3419 5.44613 83.3749 4.52195C83.4079 3.56475 83.4409 2.8386 83.4739 2.27749C83.5069 1.68337 83.5729 1.18827 83.6389 0.825195C80.5363 0.825195 78.1598 1.48533 76.5425 2.8056C74.9252 4.12587 74.1 6.30431 74.1 9.37393L74.034 33.4028C74.034 43.2388 78.721 49.6751 87.6658 49.6751C92.0887 49.6751 95.3233 47.2986 95.3233 43.7009C95.3233 42.4136 95.1583 41.7535 95.0263 41.3574C94.2671 41.5225 92.8148 41.8525 90.4383 41.8525Z" fill="#FFD300"/>
<path d="M112.883 42.3147C110.903 42.3147 109.615 40.8624 109.615 38.5189V21.1904C109.615 19.6721 109.615 18.4178 109.648 17.4936C109.681 16.5364 109.714 15.8103 109.747 15.2492C109.813 14.655 109.846 14.1599 109.912 13.7969C106.744 13.7969 104.367 14.457 102.75 15.7773C101.133 17.0975 100.307 19.276 100.307 22.3456L100.241 40.0042C100.241 46.3085 104.301 49.8072 109.417 49.6092C112.652 49.4771 115.424 47.9588 115.424 44.5591C115.424 43.1398 115.193 42.0176 115.193 42.0176C114.434 42.1826 113.906 42.3147 112.883 42.3147Z" fill="#FFD300"/>
<path d="M135.823 13.7637C133.875 13.7637 131.928 13.9947 129.98 14.4238C128.033 14.8529 126.251 15.6781 124.666 16.8993C123.082 18.1206 121.795 19.8039 120.805 21.9823C119.814 24.1608 119.319 26.9334 119.319 30.333V40.2681C119.319 43.3377 119.715 46.1763 121.564 47.5625C123.577 49.0809 125.921 49.1469 129.023 49.1469C128.957 48.8498 128.924 47.9586 128.858 47.3645C128.792 46.8034 128.759 46.0442 128.759 45.12C128.726 44.1629 128.726 42.9416 128.726 41.4233V28.6827C128.726 25.6791 129.221 21.8173 134.502 21.3882C137.473 21.1242 140.113 20.0019 140.113 16.7673C140.113 16.0081 139.948 14.5888 139.585 13.7637H135.823Z" fill="#FFD300"/>
<path d="M16.4373 38.1888C12.3775 38.1888 9.27489 35.6142 9.27489 29.9701C9.27489 23.9629 12.4435 20.8272 16.4373 20.8272C20.3651 20.8272 23.2367 23.2037 23.2367 29.508C23.2367 35.9773 20.1341 38.1888 16.4373 38.1888ZM16.5034 13.0046C5.67715 13.0046 0 20.5962 0 29.8381C0 38.3868 5.21506 46.3744 14.688 46.3744C19.606 46.3744 22.4446 44.295 23.1707 43.6679V47.9587C23.1707 52.8767 21.2563 56.1444 16.3053 56.1444C13.9288 56.1444 12.1465 55.4843 10.4961 54.7251C9.04384 54.032 7.95462 53.2068 6.50232 53.2068C2.80557 53.2068 1.78236 57.7617 1.81537 57.7947C4.58793 61.3595 10.9252 64 16.2393 64C26.7024 64 32.4786 57.8938 32.4786 45.7803C32.4786 45.7803 32.4786 33.5678 32.4786 31.6204C32.4456 20.5632 27.5606 13.0046 16.5034 13.0046Z" fill="#FFD300"/>
<path d="M275.738 20.2001C279.732 20.2001 281.646 22.3785 281.646 24.3589C281.646 26.7024 279.534 28.2207 275.705 28.2207C270.16 28.2207 268.047 27.4285 268.047 27.4285C268.047 24.0619 270.688 20.2001 275.738 20.2001ZM289.964 24.3259C289.964 17.0974 284.023 12.3445 275.375 12.3445C267.156 12.3445 258.542 18.2527 258.542 31.4224C258.542 41.4894 264.615 48.9159 275.144 48.9159C281.052 48.9159 287.554 45.5492 289.205 43.2388C289.205 43.2388 288.083 38.9149 285.013 38.9149C283.396 38.9149 282.207 39.542 280.887 40.1031C279.501 40.6642 277.883 41.1593 275.771 41.1593C272.833 41.1593 267.783 39.9711 267.783 33.6668C267.783 33.6668 270.16 34.36 275.573 34.36C287.158 34.3269 289.964 29.442 289.964 24.3259Z" fill="#F3F0FE"/>
<path d="M250.521 41.0273C246.527 41.0273 244.448 37.6607 244.085 36.2084C243.688 34.7561 243.424 32.7096 243.424 30.5972L243.49 19.771H246.395C248.738 19.771 250.554 19.0779 251.808 17.7246C253.095 16.3383 253.723 14.523 253.723 12.2125H243.49L243.424 7.3935C243.424 5.87519 243.424 4.62094 243.457 3.69675C243.49 2.73956 243.523 2.01341 243.556 1.4523C243.589 0.858174 243.655 0.363074 243.721 0C240.619 0 238.242 0.660134 236.625 1.9804C235.008 3.30067 234.183 5.47911 234.183 8.54874L234.117 32.5776C234.117 42.4136 238.803 48.8499 247.748 48.8499C252.171 48.8499 255.406 46.4734 255.406 42.8757C255.406 41.5884 255.241 40.9283 255.109 40.5322C254.35 40.6973 252.897 41.0273 250.521 41.0273Z" fill="#F3F0FE"/>
<path d="M311.55 13.3347C309.603 13.3347 307.656 13.5658 305.708 13.9949C303.761 14.4239 301.978 15.2491 300.394 16.4704C298.81 17.6916 297.522 19.3749 296.532 21.5534C295.542 23.7318 295.047 26.5044 295.047 29.9041V39.8391C295.047 42.9087 295.443 45.7473 297.291 47.1336C299.305 48.6519 301.648 48.7179 304.751 48.7179C304.685 48.4208 304.652 47.5297 304.586 46.9355C304.52 46.3744 304.487 45.6153 304.487 44.6911C304.454 43.7339 304.454 42.5126 304.454 40.9943V28.2537C304.454 25.2501 304.949 21.3884 310.23 20.9593C313.201 20.6952 315.841 19.573 315.841 16.3383C315.841 15.5792 315.676 14.1599 315.313 13.3347H311.55Z" fill="#F3F0FE"/>
<path d="M192.759 31.5874C190.152 39.0469 186.884 45.5162 184.574 48.9159H183.121C180.382 48.9159 178.269 46.3744 177.114 44.1959C174.969 40.2681 172.295 33.7328 171.305 28.3857C170.183 33.7328 166.09 44.658 162.921 48.9159H161.733C159.125 48.9159 156.65 46.3084 155.462 44.1959C150.379 35.1851 146.979 24.986 145.395 13.2026H150.115C153.118 13.2026 154.901 15.4801 155.198 17.4605C156.254 23.4677 157.871 30.1351 160.809 36.5384C164.01 29.541 165.793 21.9494 167.476 14.5229H170.348C173.021 14.5229 175.695 15.6451 176.553 19.5069C177.609 24.2929 179.755 31.5874 182.23 36.5714C185.564 29.1779 187.445 21.0252 188.831 13.0376H192.495C194.971 13.0376 196.753 14.1598 196.753 16.8334C196.819 18.1866 195.367 24.2599 192.759 31.5874Z" fill="#F3F0FE"/>
<path d="M215.699 49.1141H213.949C205.566 49.1141 199.823 44.3941 199.823 37.9248C199.823 31.6536 204.41 26.8676 217.349 26.8676H220.419V26.4055C220.419 21.4215 218.075 19.9362 212.827 19.9362C206.49 19.9362 202.958 22.3457 201.638 23.996H201.308V21.1904C201.308 17.2626 204.84 12.5757 214.114 12.5757C221.97 12.5757 229.033 16.2394 229.033 28.3859V36.5055C229.033 43.932 223.554 49.1141 215.699 49.1141ZM220.485 33.1389H217.349C210.682 33.1389 208.8 34.7232 208.8 37.5948C208.8 40.3343 211.012 41.9846 214.874 41.9846C218.669 41.9846 220.485 40.1693 220.485 36.5716V33.1389Z" fill="#F3F0FE"/>
</g>
<defs>
<clipPath id="clip0">
<rect width="315.841" height="64" fill="white"/>
</clipPath>
</defs>
</svg>