<svg xmlns="http://www.w3.org/2000/svg" width="75" height="16" viewBox="0 0 75 16" fill="none">
<g clip-path="url(#clip0)">
<path d="M70.8758 5.1006C71.8826 5.1006 72.3652 5.64974 72.3652 6.14896C72.3652 6.73971 71.8327 7.12244 70.8675 7.12244C69.4697 7.12244 68.9372 6.92275 68.9372 6.92275C68.9372 6.07408 69.6028 5.1006 70.8758 5.1006ZM74.4619 6.14064C74.4619 4.31849 72.9642 3.12036 70.7843 3.12036C68.7126 3.12036 66.541 4.6097 66.541 7.92951C66.541 10.4672 68.0719 12.3393 70.7261 12.3393C72.2154 12.3393 73.8545 11.4906 74.2705 10.9082C74.2705 10.9082 73.9876 9.81823 73.2139 9.81823C72.8062 9.81823 72.5066 9.97632 72.1738 10.1178C71.8244 10.2592 71.4167 10.384 70.8842 10.384C70.1437 10.384 68.8706 10.0845 68.8706 8.4953C68.8706 8.4953 69.4697 8.67002 70.8342 8.67002C73.7547 8.6617 74.4619 7.43029 74.4619 6.14064Z" fill="#F3F0FE"/>
<path d="M65.0599 3.33667C64.569 3.33667 64.0781 3.39491 63.5872 3.50308C63.0963 3.61124 62.647 3.81925 62.2476 4.1271C61.8482 4.43495 61.5237 4.85929 61.2741 5.40843C61.0245 5.95757 60.8997 6.65648 60.8997 7.51348V10.0179C60.8997 10.7917 60.9996 11.5072 61.4655 11.8567C61.973 12.2394 62.5638 12.2561 63.3459 12.2561C63.3293 12.1812 63.3209 11.9565 63.3043 11.8068C63.2877 11.6653 63.2793 11.474 63.2793 11.241C63.271 10.9997 63.271 10.6918 63.271 10.3091V7.09746C63.271 6.34031 63.3958 5.36683 64.7271 5.25867C65.4759 5.1921 66.1415 4.90921 66.1415 4.09382C66.1415 3.90245 66.0999 3.54468 66.0084 3.33667H65.0599Z" fill="#F3F0FE"/>
<path d="M55.3085 3.10376C57.9543 3.10376 59.477 5.22545 59.477 7.56346C59.477 10.2093 57.9543 12.3144 55.1171 12.3144C52.4712 12.3144 50.9486 10.2093 50.9486 7.87131C50.9403 5.23377 52.4629 3.10376 55.3085 3.10376ZM55.1088 5.06736C53.8524 5.06736 53.2117 6.11572 53.2117 7.56346C53.2117 9.31073 53.8524 10.3591 55.3001 10.3591C56.5732 10.3591 57.1972 9.31073 57.1972 7.87963C57.2055 6.11572 56.5482 5.06736 55.1088 5.06736Z" fill="#F3F0FE"/>
<path d="M49.1098 12.123C47.92 12.123 47.4458 11.5655 47.4458 10.5255V7.13076C47.4458 5.6747 46.7885 5.059 45.8316 5.059C44.9497 5.059 44.3423 5.68302 44.3423 6.88947V12.1313H43.7515C42.7864 12.1313 42.154 11.5738 42.154 10.5338V7.13076C42.154 5.6747 41.4801 5.059 40.5232 5.059C39.6746 5.059 39.0339 5.73295 39.0339 6.93939V12.1313H38.4432C37.5446 12.1313 36.8623 11.5405 36.8623 10.5338V7.12244C36.8623 4.71786 38.1187 3.12036 40.7812 3.12036C41.9211 3.12036 42.8197 3.64454 43.4603 4.49322C43.9679 3.67782 44.933 3.12036 45.9897 3.12036C48.0115 3.12036 49.6507 4.34345 49.6507 6.84787V12.1396H49.1098V12.123Z" fill="#F3F0FE"/>
<path d="M35.1067 3.33667C34.6158 3.33667 34.1249 3.39491 33.634 3.50308C33.1431 3.61124 32.6938 3.81925 32.2944 4.1271C31.895 4.43495 31.5705 4.85929 31.3209 5.40843C31.0713 5.95757 30.9465 6.65648 30.9465 7.51348V10.0179C30.9465 10.7917 31.0463 11.5072 31.5123 11.8567C32.0198 12.2394 32.6106 12.2561 33.3927 12.2561C33.376 12.1812 33.3677 11.9565 33.3511 11.8068C33.3344 11.6653 33.3261 11.474 33.3261 11.241C33.3178 10.9997 33.3178 10.6918 33.3178 10.3091V7.09746C33.3178 6.34031 33.4426 5.36683 34.7739 5.25867C35.5227 5.1921 36.1883 4.90921 36.1883 4.09382C36.1883 3.90245 36.1467 3.54468 36.0552 3.33667H35.1067Z" fill="#FFD300"/>
<path d="M29.324 10.5337C28.8248 10.5337 28.5003 10.1676 28.5003 9.5769V5.20872C28.5003 4.82599 28.5003 4.50982 28.5087 4.27685C28.517 4.03556 28.5253 3.85251 28.5336 3.71107C28.5503 3.5613 28.5586 3.43649 28.5752 3.34497C27.7765 3.34497 27.1774 3.51138 26.7697 3.84419C26.362 4.177 26.154 4.72615 26.154 5.49994L26.1374 9.95131C26.1374 11.5405 27.1608 12.4225 28.4504 12.3725C29.2658 12.3392 29.9647 11.9565 29.9647 11.0995C29.9647 10.7417 29.9065 10.4589 29.9065 10.4589C29.7151 10.5005 29.582 10.5337 29.324 10.5337Z" fill="#FFD300"/>
<path d="M26.7281 2.47138C26.9112 2.56291 27.1108 2.61283 27.3189 2.61283C27.8014 2.61283 28.1842 2.37986 28.4671 1.92224C28.5835 1.71423 28.6418 1.48958 28.6418 1.24829C28.6418 1.02364 28.5919 0.815637 28.4837 0.615949C28.3755 0.416261 28.2175 0.266495 28.0094 0.15833C27.8264 0.0501661 27.635 0.000244141 27.4353 0.000244141C27.2107 0.000244141 26.9944 0.0668068 26.7864 0.191612C26.5783 0.316417 26.4119 0.491144 26.2955 0.715793C26.179 0.915481 26.1207 1.14013 26.1207 1.38974C26.1207 1.61439 26.1706 1.8224 26.2788 2.01376C26.3787 2.19681 26.5284 2.3549 26.7281 2.47138Z" fill="#FFD300"/>
<path d="M23.6662 10.4174C22.6595 10.4174 22.1353 9.56869 22.0438 9.2026C21.9439 8.8365 21.8774 8.32064 21.8774 7.78814L21.894 5.05907H22.6262C23.2169 5.05907 23.6746 4.88435 23.9907 4.54321C24.3152 4.19376 24.4733 3.73614 24.4733 3.15372H21.894L21.8774 1.93895C21.8774 1.55621 21.8774 1.24004 21.8857 1.00707C21.894 0.765783 21.9023 0.582736 21.9107 0.44129C21.919 0.291524 21.9356 0.166719 21.9523 0.0751953C21.1701 0.0751953 20.5711 0.241602 20.1634 0.574415C19.7557 0.907228 19.5477 1.45637 19.5477 2.23016L19.531 8.28736C19.531 10.7668 20.7125 12.3893 22.9673 12.3893C24.0823 12.3893 24.8976 11.7902 24.8976 10.8833C24.8976 10.5588 24.856 10.3924 24.8228 10.2926C24.6314 10.3342 24.2653 10.4174 23.6662 10.4174Z" fill="#FFD300"/>
<path d="M14.6304 5.1006C15.6371 5.1006 16.1197 5.64974 16.1197 6.14896C16.1197 6.73971 15.5872 7.12244 14.622 7.12244C13.2242 7.12244 12.6917 6.92275 12.6917 6.92275C12.6917 6.07408 13.3574 5.1006 14.6304 5.1006ZM18.2164 6.14064C18.2164 4.31849 16.7188 3.12036 14.5388 3.12036C12.4671 3.12036 10.2955 4.6097 10.2955 7.92951C10.2955 10.4672 11.8264 12.3393 14.4806 12.3393C15.9699 12.3393 17.609 11.4906 18.0251 10.9082C18.0251 10.9082 17.7422 9.81823 16.9684 9.81823C16.5607 9.81823 16.2611 9.97632 15.9283 10.1178C15.5789 10.2592 15.1712 10.384 14.6387 10.384C13.8982 10.384 12.6252 10.0845 12.6252 8.4953C12.6252 8.4953 13.2242 8.67002 14.5888 8.67002C17.5092 8.6617 18.2164 7.43029 18.2164 6.14064Z" fill="#FFD300"/>
<path d="M5.01206 9.49368C3.98865 9.49368 3.20654 8.84469 3.20654 7.42191C3.20654 5.90761 4.0053 5.11718 5.01206 5.11718C6.00218 5.11718 6.72604 5.71625 6.72604 7.30543C6.72604 8.93622 5.94393 9.49368 5.01206 9.49368ZM5.0287 3.14526C2.29963 3.14526 0.86853 5.05894 0.86853 7.38863C0.86853 9.5436 2.18314 11.5571 4.57108 11.5571C5.81081 11.5571 6.52636 11.0329 6.7094 10.8749V11.9565C6.7094 13.1962 6.22682 14.0199 4.97877 14.0199C4.37971 14.0199 3.93041 13.8535 3.5144 13.6622C3.1483 13.4874 2.87373 13.2794 2.50764 13.2794C1.57576 13.2794 1.31783 14.4276 1.32615 14.436C2.02506 15.3345 3.62256 16.0002 4.96213 16.0002C7.59968 16.0002 9.05574 14.4609 9.05574 11.4074C9.05574 11.4074 9.05574 8.32883 9.05574 7.83793C9.04742 5.05062 7.81601 3.14526 5.0287 3.14526Z" fill="#FFD300"/>
</g>
<defs>
<clipPath id="clip0">
<rect width="73.5933" height="16" fill="white" transform="translate(0.86853 0.000244141)"/>
</clipPath>
</defs>
</svg>