<svg xmlns="http://www.w3.org/2000/svg" width="106" height="24" viewBox="0 0 106 24" fill="none">
<path d="M20.6427 7.64931C22.1528 7.64931 22.8767 8.47303 22.8767 9.22186C22.8767 10.108 22.078 10.6821 20.6302 10.6821C18.5335 10.6821 17.7347 10.3825 17.7347 10.3825C17.7347 9.11078 18.7332 7.64931 20.6427 7.64931ZM26.0218 9.20938C26.0218 6.47615 23.7753 4.67896 20.5054 4.67896C17.3978 4.67896 14.1404 6.91296 14.1404 11.8927C14.1404 15.6992 16.4368 18.5073 20.4181 18.5073C22.6521 18.5073 25.1107 17.2343 25.7347 16.3607C25.7347 16.3607 25.3104 14.7258 24.1497 14.7258C23.5382 14.7258 23.0889 14.9629 22.5897 15.1751C21.9782 15.4367 21.3203 15.5725 20.6552 15.5744C19.5444 15.5744 17.6349 15.1251 17.6349 12.7414C17.6349 12.7414 18.5335 13.0034 20.5803 13.0034C24.961 12.991 26.0218 11.1439 26.0218 9.20938Z" fill="#FFD10D"/>
<path d="M34.1965 15.6256C32.6864 15.6256 31.9001 14.3526 31.7628 13.8034C31.591 13.1094 31.5072 12.3966 31.5132 11.6817L31.5382 7.58812H32.6365C33.5226 7.58812 34.209 7.32603 34.6833 6.81433C35.1575 6.30263 35.4071 5.60372 35.4071 4.73009H31.5382L31.5132 2.90794C31.5132 2.33383 31.5132 1.85957 31.5257 1.51012C31.5382 1.16067 31.5506 0.873615 31.5631 0.661447C31.5727 0.477297 31.5935 0.293906 31.6255 0.112305C30.4524 0.112305 29.5538 0.361915 28.9422 0.861135C28.3307 1.36035 28.0187 2.18407 28.0187 3.34475L27.9937 12.4306C27.9937 16.1497 29.7659 18.5834 33.1482 18.5834C34.8205 18.5834 36.0436 17.6848 36.0436 16.3245C36.0557 16.0249 36.0178 15.7254 35.9313 15.4384C35.3624 15.5685 34.7801 15.6314 34.1965 15.6256Z" fill="#FFD10D"/>
<path d="M42.6834 15.8002C41.9345 15.8002 41.4478 15.2511 41.4478 14.365V7.81272C41.4478 7.23862 41.4478 6.76436 41.4603 6.41491C41.4728 6.06545 41.4852 5.7784 41.4977 5.56623C41.5102 5.35406 41.5352 5.15438 41.5601 5.01709C40.362 5.01709 39.4634 5.2667 38.8518 5.76592C38.2403 6.26514 37.9283 7.08885 37.9283 8.24954L37.9033 14.9266C37.9033 17.3104 39.4384 18.6333 41.3729 18.5584C42.596 18.5085 43.6444 17.9344 43.6444 16.6489C43.6445 16.3266 43.6153 16.0049 43.557 15.6879C43.2718 15.7624 42.9782 15.8002 42.6834 15.8002Z" fill="#FFD10D"/>
<path d="M38.7894 3.70672C39.0641 3.84565 39.3676 3.91831 39.6755 3.91889C40.3994 3.91889 40.9735 3.56943 41.3978 2.88301C41.5716 2.57456 41.6619 2.22612 41.6599 1.87208C41.6629 1.54088 41.5813 1.2144 41.4228 0.923567C41.2617 0.627181 41.0133 0.38753 40.7114 0.23714C40.4514 0.0809574 40.1535 -0.00105053 39.8502 1.01601e-05C39.5055 0.00423101 39.1686 0.103566 38.8768 0.287062C38.5622 0.474682 38.307 0.747205 38.1404 1.07333C37.9637 1.38058 37.8731 1.72983 37.8783 2.08425C37.8738 2.41168 37.9556 2.73451 38.1154 3.02029C38.2727 3.30674 38.5059 3.54427 38.7894 3.70672Z" fill="#FFD10D"/>
<path d="M51.3573 5.00342C50.6141 5.00627 49.8733 5.08996 49.1482 5.25303C48.4172 5.41185 47.7308 5.73161 47.1389 6.18907C46.5007 6.69966 45.999 7.36043 45.6786 8.11231C45.3042 8.93602 45.117 9.98439 45.117 11.2699V15.0265C45.117 16.1872 45.2668 17.2605 45.9657 17.7847C46.727 18.3588 47.6131 18.3838 48.7863 18.3838C48.7613 18.2714 48.7488 17.9345 48.7239 17.7098C48.6957 17.4278 48.6832 17.1445 48.6864 16.8611C48.674 16.4992 48.674 16.0374 48.674 15.4633V10.6446C48.674 9.50888 48.8612 8.04866 50.8581 7.88641C51.9813 7.78657 52.9797 7.36223 52.9797 6.13914C52.9782 5.75197 52.9107 5.3679 52.7801 5.00342H51.3573Z" fill="#FFD10D"/>
<path d="M6.21529 14.2402C4.68019 14.2402 3.50702 13.2667 3.50702 11.1325C3.50702 8.86105 4.70515 7.67541 6.21529 7.67541C7.70047 7.67541 8.78627 8.574 8.78627 10.9578C8.78627 13.404 7.6131 14.2402 6.21529 14.2402ZM6.24025 4.71753C2.14665 4.71753 0 7.58804 0 11.0826C0 14.315 1.97192 17.3353 5.55382 17.3353C7.41342 17.3353 8.48674 16.549 8.76131 16.3119V17.9344C8.76131 19.794 8.03744 21.0295 6.16537 21.0295C5.26677 21.0295 4.59282 20.7799 3.9688 20.4929C3.41966 20.2308 3.0078 19.9188 2.45866 19.9188C1.06084 19.9188 0.673947 21.6411 0.686427 21.6536C1.73479 23.0015 4.13105 23.9999 6.14041 23.9999C10.0967 23.9999 12.2808 21.691 12.2808 17.1107V11.7565C12.2683 7.57556 10.4212 4.71753 6.24025 4.71753Z" fill="#FFD10D"/>
<path d="M62.7182 3.7867C62.0988 3.58257 61.4495 3.48385 60.7974 3.49465C59.4433 3.49465 58.4336 3.96267 58.4336 5.74114V6.91431H62.2264V7.82539C62.2264 9.00854 60.9697 9.69746 59.8614 9.69746H58.4336V18.5649H57.1032C56.842 18.569 56.5826 18.5211 56.3402 18.4238C56.0978 18.3266 55.8772 18.182 55.6913 17.9985C55.5053 17.815 55.3579 17.5964 55.2574 17.3552C55.157 17.1141 55.1056 16.8554 55.1063 16.5942V5.46158C55.1063 3.58951 56.4105 0.585449 60.2782 0.585449C61.706 0.585449 62.8143 1.37297 62.8143 2.67843V3.7867H62.7182Z" fill="#F4F2FD"/>
<path d="M70.1317 4.59399C74.1254 4.59399 76.4131 7.79649 76.4131 11.3185C76.4131 15.3122 74.1217 18.4848 69.8371 18.4848C65.8433 18.4848 63.5557 15.3085 63.5557 11.7865C63.5557 7.79649 65.8471 4.59399 70.1317 4.59399ZM69.8371 7.54938C67.9401 7.54938 66.9791 9.12566 66.9791 11.3185C66.9791 13.9531 67.9401 15.5294 70.1317 15.5294C72.0537 15.5294 72.9897 13.9531 72.9897 11.7853C72.9897 9.12566 72.0037 7.54938 69.8371 7.54938Z" fill="#F4F2FD"/>
<path d="M84.9584 4.59399C88.9522 4.59399 91.2398 7.79649 91.2398 11.3185C91.2398 15.3122 88.9484 18.4848 84.6639 18.4848C80.6701 18.4848 78.3824 15.3085 78.3824 11.7865C78.3774 7.79649 80.6738 4.59399 84.9584 4.59399ZM84.6639 7.54938C82.7668 7.54938 81.8058 9.12566 81.8058 11.3185C81.8058 13.9531 82.7668 15.5294 84.9584 15.5294C86.8804 15.5294 87.8152 13.9531 87.8152 11.7853C87.8152 9.12566 86.8305 7.54938 84.6639 7.54938Z" fill="#F4F2FD"/>
<path d="M99.3909 18.4849C95.8964 18.4849 93.2093 15.4309 93.2093 11.7866C93.2093 7.42715 95.331 4.59407 99.1999 4.59407C100.529 4.59407 101.983 5.53011 102.5 6.6883V0.456787H103.509C105.086 0.456787 105.776 1.36786 105.776 2.70328V12.0637C105.771 15.9239 103.948 18.4849 99.3909 18.4849ZM99.2187 7.37722C97.545 7.37722 96.4605 8.99969 96.4605 11.1463C96.4605 13.9045 97.8895 15.7017 99.7853 15.7017C101.632 15.7017 102.446 14.3289 102.446 11.9089C102.446 8.58409 100.992 7.37722 99.2199 7.37722H99.2187Z" fill="#F4F2FD"/>
</svg>