<svg data-testid="icon" name="twitter" size="20" color="currentColor" version="1.1" xmlns="http://www.w3.org/2000/svg" viewBox="0 0 32 32"><path d="M32.062 5.334c-1.217 0.567-2.515 0.942-3.848 1.111 1.417-0.908 2.463-2.294 2.947-3.906-1.293 0.793-2.728 1.377-4.254 1.699-0.609-0.7-1.36-1.261-2.204-1.647s-1.759-0.587-2.687-0.591c-3.698 0-6.697 3.164-6.697 7.058 0 0.56 0.061 1.097 0.173 1.615-5.565-0.28-10.5-3.099-13.804-7.359-0.581 1.034-0.905 2.24-0.905 3.551 0 2.452 1.183 4.611 2.977 5.88-1.069-0.037-2.111-0.34-3.033-0.882v0.084c0 3.423 2.305 6.281 5.371 6.93-0.98 0.276-2.011 0.318-3.010 0.121 0.859 2.805 3.327 4.846 6.265 4.905-1.362 1.138-2.943 1.985-4.645 2.488s-3.489 0.652-5.251 0.438c3.033 2.062 6.615 3.166 10.283 3.171 12.325 0 19.059-10.759 19.059-20.076 0-0.303 0-0.604-0.023-0.905 1.307-0.989 2.45-2.238 3.348-3.656l-0.063-0.028z"></path></svg>