<svg data-testid="icon" name="heart" size="18" color="#FFF" class="style__Icon-sc-__sc-hqksj3-1 iSxMEP sc-cc3b7892-0 bRbRdx" version="1.1" xmlns="http://www.w3.org/2000/svg" viewBox="0 0 32 32"><path d="M29.358 4.507c-0.839-0.839-1.845-1.51-2.95-1.971s-2.279-0.685-3.481-0.685c-1.188 0-2.377 0.238-3.481 0.685-1.104 0.461-2.111 1.132-2.95 1.971l-0.489 0.503-0.489-0.489c-1.706-1.706-4.012-2.656-6.431-2.656-2.405 0-4.725 0.951-6.431 2.656s-2.656 4.012-2.656 6.431c0 2.418 0.951 4.725 2.656 6.431l12.358 12.358c0.545 0.545 1.426 0.545 1.971 0l12.358-12.358c0.839-0.839 1.51-1.845 1.971-2.95s0.685-2.279 0.685-3.481c0-1.202-0.238-2.377-0.685-3.481-0.447-1.118-1.119-2.111-1.957-2.964zM28.743 13.342c-0.322 0.769-0.783 1.454-1.37 2.041l-11.366 11.38-11.366-11.366c-1.174-1.174-1.845-2.782-1.845-4.446s0.657-3.271 1.845-4.446c1.174-1.174 2.782-1.845 4.446-1.845s3.271 0.657 4.446 1.845l1.482 1.482c0.545 0.545 1.426 0.545 1.971 0l1.482-1.482c0.587-0.587 1.272-1.049 2.041-1.37s1.58-0.475 2.405-0.475c0.825 0 1.649 0.168 2.404 0.475s1.454 0.783 2.041 1.37 1.049 1.272 1.37 2.041c0.322 0.769 0.475 1.58 0.475 2.405s-0.14 1.636-0.461 2.39z" class="style__Path-sc-__sc-hqksj3-2"></path></svg>