<svg data-testid="icon" name="heart-filled" size="18" color="rgba(0,0,0,.4)" class="style__Icon-sc-__sc-hqksj3-1 iSxMEP sc-cc3b7892-1 enzdaY" version="1.1" xmlns="http://www.w3.org/2000/svg" viewBox="0 0 32 32"><path d="M29.358 4.514c-0.839-0.839-1.845-1.51-2.95-1.971s-2.279-0.685-3.481-0.685c-1.202 0-2.377 0.238-3.481 0.685-1.104 0.461-2.111 1.132-2.95 1.971l-0.489 0.489-0.489-0.489c-1.706-1.706-4.012-2.656-6.431-2.656s-4.725 0.951-6.431 2.656c-1.706 1.706-2.656 4.012-2.656 6.431s0.951 4.725 2.656 6.431l12.358 12.358c0.545 0.545 1.426 0.545 1.971 0l12.358-12.358c0.839-0.839 1.51-1.845 1.971-2.95s0.685-2.279 0.685-3.481c0-1.202-0.238-2.377-0.685-3.481s-1.118-2.097-1.957-2.95z" class="style__Path-sc-__sc-hqksj3-2"></path></svg>